<svg width="288" height="32" viewBox="0 0 288 32" fill="none" xmlns="http://www.w3.org/2000/svg">
<rect width="32" height="32" rx="16" fill="#FF9B00"/>
<path d="M22.2281 20.625L22.9375 16H18.5V13C18.5 11.7344 19.1188 10.5 21.1063 10.5H23.125V6.5625C23.125 6.5625 21.2938 6.25 19.5438 6.25C15.8875 6.25 13.5 8.46563 13.5 12.475V16H9.4375V20.625H13.5V31.8062C14.3156 31.9344 15.15 32 16 32C16.85 32 17.6844 31.9344 18.5 31.8062V20.625H22.2281Z" fill="white"/>
<rect x="64" width="32" height="32" rx="16" fill="#FF9B00"/>
<path d="M77.0718 24.44C84.1678 24.44 88.0478 18.56 88.0478 13.464C88.0478 13.296 88.0478 13.128 88.0398 12.968C88.7918 12.424 89.4478 11.744 89.9678 10.968C89.2798 11.272 88.5358 11.48 87.7518 11.576C88.5518 11.096 89.1598 10.344 89.4478 9.44003C88.7038 9.88003 87.8798 10.2 86.9998 10.376C86.2958 9.62403 85.2958 9.16003 84.1838 9.16003C82.0558 9.16003 80.3278 10.888 80.3278 13.016C80.3278 13.32 80.3598 13.616 80.4318 13.896C77.2238 13.736 74.3838 12.2 72.4798 9.86403C72.1518 10.432 71.9598 11.096 71.9598 11.8C71.9598 13.136 72.6398 14.32 73.6798 15.008C73.0478 14.992 72.4558 14.816 71.9358 14.528C71.9358 14.544 71.9358 14.56 71.9358 14.576C71.9358 16.448 73.2638 18 75.0318 18.36C74.7118 18.448 74.3678 18.496 74.0158 18.496C73.7678 18.496 73.5278 18.472 73.2878 18.424C73.7758 19.96 75.1998 21.072 76.8878 21.104C75.5678 22.136 73.9038 22.752 72.0958 22.752C71.7838 22.752 71.4798 22.736 71.1758 22.696C72.8638 23.8 74.8958 24.44 77.0718 24.44Z" fill="white"/>
<rect x="128" width="32" height="32" rx="16" fill="#FF9B00"/>
<path d="M144.003 8.13046C146.568 8.13046 146.869 8.1419 147.883 8.18764C148.82 8.22956 149.327 8.38584 149.667 8.51924C150.116 8.69457 150.437 8.90039 150.772 9.23581C151.107 9.57123 151.317 9.8914 151.489 10.3412C151.618 10.6804 151.778 11.1873 151.82 12.125C151.866 13.1388 151.877 13.4399 151.877 16.0051C151.877 18.5703 151.866 18.8714 151.82 19.8853C151.778 20.8229 151.622 21.3298 151.489 21.6691C151.313 22.1188 151.107 22.439 150.772 22.7744C150.437 23.1098 150.116 23.3195 149.667 23.491C149.327 23.6206 148.82 23.7806 147.883 23.8226C146.869 23.8683 146.568 23.8797 144.003 23.8797C141.437 23.8797 141.136 23.8683 140.122 23.8226C139.185 23.7806 138.678 23.6244 138.339 23.491C137.889 23.3156 137.569 23.1098 137.233 22.7744C136.898 22.439 136.688 22.1188 136.517 21.6691C136.387 21.3298 136.227 20.8229 136.185 19.8853C136.139 18.8714 136.128 18.5703 136.128 16.0051C136.128 13.4399 136.139 13.1388 136.185 12.125C136.227 11.1873 136.383 10.6804 136.517 10.3412C136.692 9.8914 136.898 9.57123 137.233 9.23581C137.569 8.90039 137.889 8.69076 138.339 8.51924C138.678 8.38965 139.185 8.22956 140.122 8.18764C141.136 8.13809 141.441 8.13046 144.003 8.13046ZM144.003 6.40002C141.396 6.40002 141.068 6.41146 140.042 6.4572C139.021 6.50294 138.323 6.66683 137.714 6.90315C137.081 7.14709 136.547 7.47869 136.014 8.01231C135.48 8.54592 135.152 9.08335 134.904 9.71225C134.668 10.3221 134.504 11.0196 134.459 12.0449C134.413 13.0664 134.401 13.3942 134.401 16.0013C134.401 18.6084 134.413 18.9362 134.459 19.9615C134.504 20.983 134.668 21.6805 134.904 22.2941C135.148 22.9269 135.48 23.4605 136.014 23.9941C136.547 24.5277 137.085 24.8555 137.714 25.1033C138.323 25.3396 139.021 25.5035 140.046 25.5492C141.072 25.5949 141.396 25.6064 144.006 25.6064C146.617 25.6064 146.941 25.5949 147.967 25.5492C148.988 25.5035 149.686 25.3396 150.299 25.1033C150.932 24.8593 151.466 24.5277 151.999 23.9941C152.533 23.4605 152.861 22.9231 153.108 22.2941C153.345 21.6843 153.509 20.9868 153.554 19.9615C153.6 18.9362 153.612 18.6122 153.612 16.0013C153.612 13.3904 153.6 13.0664 153.554 12.0411C153.509 11.0196 153.345 10.3221 153.108 9.70844C152.864 9.07573 152.533 8.54211 151.999 8.00849C151.466 7.47488 150.928 7.14709 150.299 6.89934C149.689 6.66302 148.992 6.49912 147.967 6.45339C146.938 6.41146 146.61 6.40002 144.003 6.40002Z" fill="white"/>
<path d="M144.003 8.13046C146.568 8.13046 146.869 8.1419 147.883 8.18764C148.82 8.22956 149.327 8.38584 149.667 8.51924C150.116 8.69457 150.437 8.90039 150.772 9.23581C151.107 9.57123 151.317 9.8914 151.489 10.3412C151.618 10.6804 151.778 11.1873 151.82 12.125C151.866 13.1388 151.877 13.4399 151.877 16.0051C151.877 18.5703 151.866 18.8714 151.82 19.8853C151.778 20.8229 151.622 21.3298 151.489 21.6691C151.313 22.1188 151.107 22.439 150.772 22.7744C150.437 23.1098 150.116 23.3195 149.667 23.491C149.327 23.6206 148.82 23.7806 147.883 23.8226C146.869 23.8683 146.568 23.8797 144.003 23.8797C141.437 23.8797 141.136 23.8683 140.122 23.8226C139.185 23.7806 138.678 23.6244 138.339 23.491C137.889 23.3156 137.569 23.1098 137.233 22.7744C136.898 22.439 136.688 22.1188 136.517 21.6691C136.387 21.3298 136.227 20.8229 136.185 19.8853C136.139 18.8714 136.128 18.5703 136.128 16.0051C136.128 13.4399 136.139 13.1388 136.185 12.125C136.227 11.1873 136.383 10.6804 136.517 10.3412C136.692 9.8914 136.898 9.57123 137.233 9.23581C137.569 8.90039 137.889 8.69076 138.339 8.51924C138.678 8.38965 139.185 8.22956 140.122 8.18764C141.136 8.13809 141.441 8.13046 144.003 8.13046Z" fill="white"/>
<path d="M144.002 11.073C141.281 11.073 139.07 13.2799 139.07 16.0051C139.07 18.7304 141.277 20.9373 144.002 20.9373C146.728 20.9373 148.935 18.7304 148.935 16.0051C148.935 13.2799 146.728 11.073 144.002 11.073ZM144.002 19.203C142.234 19.203 140.801 17.7699 140.801 16.0013C140.801 14.2328 142.234 12.7996 144.002 12.7996C145.771 12.7996 147.204 14.2328 147.204 16.0013C147.204 17.7699 145.771 19.203 144.002 19.203Z" fill="#FF9B00"/>
<path d="M149.129 12.0258C149.765 12.0258 150.28 11.5104 150.28 10.8747C150.28 10.239 149.765 9.72363 149.129 9.72363C148.493 9.72363 147.978 10.239 147.978 10.8747C147.978 11.5104 148.493 12.0258 149.129 12.0258Z" fill="#FF9B00"/>
<rect x="192" width="32" height="32" rx="16" fill="#FF9B00"/>
<path d="M215.501 7.19995H200.499C200.155 7.19995 199.824 7.33683 199.581 7.58048C199.337 7.82414 199.2 8.1546 199.2 8.49917V23.5007C199.2 23.8453 199.337 24.1758 199.581 24.4194C199.824 24.6631 200.155 24.8 200.499 24.8H215.501C215.846 24.8 216.176 24.6631 216.42 24.4194C216.663 24.1758 216.8 23.8453 216.8 23.5007V8.49917C216.8 8.1546 216.663 7.82414 216.42 7.58048C216.176 7.33683 215.846 7.19995 215.501 7.19995ZM204.446 22.193H201.8V13.7877H204.446V22.193ZM203.121 12.623C202.821 12.6213 202.528 12.5307 202.279 12.3627C202.031 12.1947 201.837 11.9567 201.724 11.6789C201.61 11.4011 201.581 11.0959 201.641 10.8017C201.7 10.5075 201.846 10.2376 202.059 10.0261C202.272 9.81449 202.543 9.67075 202.837 9.61296C203.132 9.55516 203.437 9.58592 203.714 9.70134C203.991 9.81676 204.228 10.0117 204.394 10.2615C204.56 10.5113 204.649 10.8048 204.649 11.105C204.652 11.3059 204.614 11.5054 204.538 11.6915C204.462 11.8776 204.35 12.0465 204.207 12.1881C204.065 12.3298 203.895 12.4413 203.708 12.516C203.522 12.5907 203.322 12.6271 203.121 12.623ZM214.199 22.2003H211.554V17.6084C211.554 16.2542 210.979 15.8362 210.236 15.8362C209.451 15.8362 208.681 16.4277 208.681 17.6426V22.2003H206.035V13.7938H208.58V14.9586H208.614C208.869 14.4416 209.764 13.558 211.129 13.558C212.606 13.558 214.201 14.4343 214.201 17.001L214.199 22.2003Z" fill="white"/>
<rect x="256" width="32" height="32" rx="16" fill="#FF9B00"/>
<path d="M282.959 10.5043C282.695 9.5252 281.923 8.75318 280.944 8.48957C279.155 8 272 8 272 8C272 8 264.845 8 263.056 8.47074C262.096 8.73436 261.305 9.5252 261.041 10.5043C260.57 12.2932 260.57 16.0026 260.57 16.0026C260.57 16.0026 260.57 19.7309 261.041 21.5008C261.305 22.48 262.077 23.252 263.056 23.5156C264.863 24.0052 272 24.0052 272 24.0052C272 24.0052 279.155 24.0052 280.944 23.5344C281.923 23.2708 282.695 22.4988 282.959 21.5197C283.429 19.7309 283.429 16.0214 283.429 16.0214C283.429 16.0214 283.448 12.2932 282.959 10.5043Z" fill="white"/>
<path d="M269.722 19.4295L275.672 16.0026L269.722 12.5756V19.4295Z" fill="#FF9B00"/>
</svg>
